<svg xmlns="http://www.w3.org/2000/svg" version="1.1" xmlns:xlink="http://www.w3.org/1999/xlink" xmlns:svgjs="http://svgjs.dev/svgjs" width="1000" height="333" viewBox="0 0 1000 333"><g transform="matrix(1,0,0,1,-0.6060500635785502,0.26455913513001406)"><svg viewBox="0 0 396 132" data-background-color="#ffbe79" preserveAspectRatio="xMidYMid meet" height="333" width="1000" xmlns="http://www.w3.org/2000/svg" xmlns:xlink="http://www.w3.org/1999/xlink"><g id="tight-bounds" transform="matrix(1,0,0,1,0.2399961308861407,-0.10487028779928664)"><svg viewBox="0 0 395.52 132.2097405755986" height="132.2097405755986" width="395.52"><g><svg viewBox="0 0 690.1377497371275 230.69107214343907" height="132.2097405755986" width="395.52"><g><rect width="8.048363089665287" height="230.69107214343907" x="265.5003733237311" y="0" fill="#374151" opacity="1" stroke-width="0" stroke="transparent" fill-opacity="1" class="rect-o-0" data-fill-palette-color="primary" rx="1%" id="o-0" data-palette-color="#374151"></rect></g><g transform="matrix(1,0,0,1,294.61774973712744,0.5738583884164967)"><svg viewBox="0 0 395.52 229.54335536660608" height="229.54335536660608" width="395.52"><g id="textblocktransform"><svg viewBox="0 0 395.52 229.54335536660608" height="229.54335536660608" width="395.52" id="textblock"><g><svg viewBox="0 0 395.52 192.54808409831207" height="192.54808409831207" width="395.52"><g transform="matrix(1,0,0,1,0,0)"><svg width="395.52" viewBox="1.7000000476837158 -37.10000228881836 170.64999389648438 78.70000457763672" height="192.54808409831207" data-palette-color="#374151"><svg></svg><svg></svg><g class="wordmark-text-0" data-fill-palette-color="primary" id="text-0"><path xmlns="http://www.w3.org/2000/svg" d="M3.5-36.15v0c0-0.633 0.267-0.95 0.8-0.95v0h25.2c0.5 0 0.75 0.283 0.75 0.85v0l-0.05 4.5c0 0.7-0.35 1.05-1.05 1.05v0h-15.95c-0.633 0-0.95 0.267-0.95 0.8v0 7.25c0 0.567 0.25 0.85 0.75 0.85v0h10.6c0.567 0 0.85 0.267 0.85 0.8v0 4.8c0 0.2-0.057 0.367-0.17 0.5-0.12 0.133-0.33 0.2-0.63 0.2v0h-10.7c-0.467 0-0.7 0.2-0.7 0.6v0 7.85c0 0.433 0.183 0.65 0.55 0.65v0h17.1c0.6 0 0.9 0.25 0.9 0.75v0 4.75c0 0.267-0.073 0.483-0.22 0.65-0.153 0.167-0.413 0.25-0.78 0.25v0h-25.2c-0.733 0-1.1-0.35-1.1-1.05v0zM66.95-37.1v0c0.333 0 0.577 0.117 0.73 0.35 0.147 0.233 0.153 0.5 0.02 0.8v0l-12 34.9c-0.2 0.7-0.717 1.05-1.55 1.05v0h-6.25c-0.867 0-1.4-0.35-1.6-1.05v0l-11.9-34.85c-0.1-0.333-0.073-0.617 0.08-0.85 0.147-0.233 0.387-0.35 0.72-0.35v0h7.2c0.533 0 0.883 0.283 1.05 0.85v0l8.2 25.3c0.2 0.533 0.4 0.517 0.6-0.05v0l7.95-25.25c0.133-0.567 0.5-0.85 1.1-0.85v0zM72.85-36.15v0c0-0.633 0.267-0.95 0.8-0.95v0h25.2c0.5 0 0.75 0.283 0.75 0.85v0l-0.05 4.5c0 0.7-0.35 1.05-1.05 1.05v0h-15.95c-0.633 0-0.95 0.267-0.95 0.8v0 7.25c0 0.567 0.25 0.85 0.75 0.85v0h10.6c0.567 0 0.85 0.267 0.85 0.8v0 4.8c0 0.2-0.057 0.367-0.17 0.5-0.12 0.133-0.33 0.2-0.63 0.2v0h-10.7c-0.467 0-0.7 0.2-0.7 0.6v0 7.85c0 0.433 0.183 0.65 0.55 0.65v0h17.1c0.6 0 0.9 0.25 0.9 0.75v0 4.75c0 0.267-0.077 0.483-0.23 0.65-0.147 0.167-0.403 0.25-0.77 0.25v0h-25.2c-0.733 0-1.1-0.35-1.1-1.05v0zM130.3-37.1h5.55c0.433 0 0.65 0.25 0.65 0.75v0 35.55c0 0.233-0.083 0.423-0.25 0.57-0.167 0.153-0.4 0.23-0.7 0.23v0h-5.05c-0.267 0-0.483-0.033-0.65-0.1-0.167-0.067-0.367-0.233-0.6-0.5v0l-15.95-22.4c-0.133-0.167-0.26-0.233-0.38-0.2-0.113 0.033-0.17 0.133-0.17 0.3v0 22c0.033 0.6-0.3 0.9-1 0.9v0h-5.2c-0.667 0-1-0.283-1-0.85v0-35.3c0-0.633 0.3-0.95 0.9-0.95v0h6.05c0.367 0 0.643 0.05 0.83 0.15 0.18 0.1 0.387 0.3 0.62 0.6v0l14.7 20.95c0.2 0.267 0.377 0.383 0.53 0.35 0.147-0.033 0.22-0.2 0.22-0.5v0-20.65c0-0.6 0.3-0.9 0.9-0.9zM141.65-31.55v-4.65c0-0.267 0.083-0.483 0.25-0.65 0.167-0.167 0.417-0.25 0.75-0.25v0h28.7c0.367 0 0.627 0.083 0.78 0.25 0.147 0.167 0.22 0.383 0.22 0.65v0 4.65c0 0.5-0.3 0.75-0.9 0.75v0h-9.35c-0.367 0-0.55 0.167-0.55 0.5v0 29.35c0 0.633-0.283 0.95-0.85 0.95v0h-7.15c-0.5 0-0.75-0.283-0.75-0.85v0-29.3c0-0.433-0.183-0.65-0.55-0.65v0h-9.65c-0.633 0-0.95-0.25-0.95-0.75z" fill="#374151" fill-rule="nonzero" stroke="none" stroke-width="1" stroke-linecap="butt" stroke-linejoin="miter" stroke-miterlimit="10" stroke-dasharray="" stroke-dashoffset="0" font-family="none" font-weight="none" font-size="none" text-anchor="none" style="mix-blend-mode: normal" data-fill-palette-color="primary" opacity="1"></path><path xmlns="http://www.w3.org/2000/svg" d="M2.75 41.1v0c-0.4 0-0.673-0.067-0.82-0.2-0.153-0.133-0.23-0.4-0.23-0.8v0-1.8c0-0.433 0.05-0.76 0.15-0.98 0.1-0.213 0.333-0.57 0.7-1.07v0l17.05-25.15c0.267-0.433 0.133-0.65-0.4-0.65v0h-15.3c-0.333 0-0.557-0.077-0.67-0.23-0.12-0.147-0.18-0.387-0.18-0.72v0-4.65c0-0.567 0.233-0.85 0.7-0.85v0h27.65c0.5 0 0.75 0.267 0.75 0.8v0 2.05c0 0.3-0.05 0.557-0.15 0.77-0.1 0.22-0.283 0.513-0.55 0.88v0l-17.45 25.5c-0.167 0.233-0.183 0.39-0.05 0.47 0.133 0.087 0.3 0.13 0.5 0.13v0h16.6c0.6 0 0.9 0.25 0.9 0.75v0 4.85c0 0.267-0.073 0.483-0.22 0.65-0.153 0.167-0.397 0.25-0.73 0.25v0zM52.1 41.6v0c-3.533 0-6.583-0.76-9.15-2.28-2.567-1.513-4.54-3.687-5.92-6.52-1.387-2.833-2.08-6.2-2.08-10.1v0c0-3.967 0.71-7.383 2.13-10.25 1.413-2.867 3.403-5.073 5.97-6.62 2.567-1.553 5.583-2.33 9.05-2.33v0c3.467 0 6.477 0.777 9.03 2.33 2.547 1.547 4.52 3.743 5.92 6.59 1.4 2.853 2.1 6.263 2.1 10.23v0c0 3.9-0.69 7.267-2.07 10.1-1.387 2.833-3.363 5.017-5.93 6.55-2.567 1.533-5.583 2.3-9.05 2.3zM52.1 35.45v0c2.733 0 4.733-0.993 6-2.98 1.267-1.98 1.9-5.22 1.9-9.72v0c0-4.6-0.64-7.943-1.92-10.03-1.287-2.08-3.28-3.12-5.98-3.12v0c-2.733 0-4.75 1.05-6.05 3.15-1.3 2.1-1.95 5.433-1.95 10v0c0 4.467 0.643 7.7 1.93 9.7 1.28 2 3.303 3 6.07 3zM99.65 4h5.55c0.433 0 0.65 0.25 0.65 0.75v0 35.55c0 0.233-0.083 0.423-0.25 0.57-0.167 0.153-0.4 0.23-0.7 0.23v0h-5.05c-0.267 0-0.483-0.033-0.65-0.1-0.167-0.067-0.367-0.233-0.6-0.5v0l-15.95-22.4c-0.133-0.167-0.257-0.233-0.37-0.2-0.12 0.033-0.18 0.133-0.18 0.3v0 22c0.033 0.6-0.3 0.9-1 0.9v0h-5.2c-0.667 0-1-0.283-1-0.85v0-35.3c0-0.633 0.3-0.95 0.9-0.95v0h6.05c0.367 0 0.643 0.05 0.83 0.15 0.18 0.1 0.387 0.3 0.62 0.6v0l14.7 20.95c0.2 0.267 0.377 0.383 0.53 0.35 0.147-0.033 0.22-0.2 0.22-0.5v0-20.65c0-0.6 0.3-0.9 0.9-0.9zM112.85 4.95v0c0-0.633 0.267-0.95 0.8-0.95v0h25.2c0.5 0 0.75 0.283 0.75 0.85v0l-0.05 4.5c0 0.7-0.35 1.05-1.05 1.05v0h-15.95c-0.633 0-0.95 0.267-0.95 0.8v0 7.25c0 0.567 0.25 0.85 0.75 0.85v0h10.6c0.567 0 0.85 0.267 0.85 0.8v0 4.8c0 0.2-0.057 0.367-0.17 0.5-0.12 0.133-0.33 0.2-0.63 0.2v0h-10.7c-0.467 0-0.7 0.2-0.7 0.6v0 7.85c0 0.433 0.183 0.65 0.55 0.65v0h17.1c0.6 0 0.9 0.25 0.9 0.75v0 4.75c0 0.267-0.073 0.483-0.22 0.65-0.153 0.167-0.413 0.25-0.78 0.25v0h-25.2c-0.733 0-1.1-0.35-1.1-1.05v0z" fill="#374151" fill-rule="nonzero" stroke="none" stroke-width="1" stroke-linecap="butt" stroke-linejoin="miter" stroke-miterlimit="10" stroke-dasharray="" stroke-dashoffset="0" font-family="none" font-weight="none" font-size="none" text-anchor="none" style="mix-blend-mode: normal" data-fill-palette-color="primary" opacity="1"></path></g></svg></g></svg></g><g transform="matrix(1,0,0,1,0,213.6170974220432)"><svg viewBox="0 0 232.209792 15.9262579445629" height="15.9262579445629" width="232.209792"><g transform="matrix(1,0,0,1,0,0)"><svg width="232.209792" viewBox="-0.9800000190734863 -36.040000915527344 686.9599609375 47.12000274658203" height="15.9262579445629" data-palette-color="#374151"><path d="M41.85-23.83Q41.55-23.58 40.94-22.51 40.33-21.44 39.5-19.82 38.67-18.21 37.72-16.19 36.77-14.16 35.79-12.06 34.81-9.96 33.91-7.91 33.01-5.86 32.32-4.17 31.64-2.49 31.23-1.29 30.81-0.1 30.81 0.24L30.81 0.24 30.81 0.39 24.56 0.39Q24.66 0.24 24.46-0.46 24.27-1.17 23.9-2.12 23.54-3.08 23.07-4.17 22.61-5.27 22.17-6.27 21.73-7.28 21.36-8.03 21-8.79 20.85-9.08L20.85-9.08Q20.61-8.54 19.97-7.15 19.34-5.76 18.68-4.25 18.02-2.73 17.5-1.44 16.99-0.15 16.99 0.29L16.99 0.29 16.99 0.39 10.74 0.39Q10.79 0.34 10.79 0.29L10.79 0.29Q10.79-0.15 10.03-1.98 9.28-3.81 8.11-6.35 6.93-8.89 5.49-11.77 4.05-14.65 2.76-17.19 1.46-19.73 0.44-21.56-0.59-23.39-0.98-23.83L-0.98-23.83 7.23-23.83Q8.79-19.87 10.23-16.02 11.67-12.16 13.62-8.4L13.62-8.4Q14.6-10.4 15.55-12.35 16.5-14.31 17.48-16.31L17.48-16.31Q17.19-16.94 16.67-18.02 16.16-19.09 15.58-20.24 14.99-21.39 14.43-22.36 13.87-23.34 13.48-23.83L13.48-23.83 21.68-23.83Q22.17-22.61 22.53-21.39 22.9-20.17 23.29-18.95L23.29-18.95Q24.17-16.26 25.17-13.65 26.17-11.04 27.44-8.5L27.44-8.5Q28.71-11.33 29.96-14.14 31.2-16.94 32.47-19.82L32.47-19.82Q32.91-20.8 33.35-21.78 33.79-22.75 34.03-23.83L34.03-23.83 41.85-23.83ZM56.15 0.73L56.15 0.73Q53.76 0.73 51.07 0.1 48.39-0.54 46.12-1.88 43.85-3.22 42.36-5.27 40.87-7.32 40.87-10.16L40.87-10.16Q40.87-13.62 42.23-16.36 43.6-19.09 45.9-20.97 48.19-22.85 51.22-23.85 54.25-24.85 57.57-24.85L57.57-24.85Q60.2-24.85 62.25-24 64.3-23.14 65.67-21.61 67.04-20.07 67.75-17.97 68.45-15.87 68.45-13.33L68.45-13.33Q68.45-10.89 67.72-8.64L67.72-8.64 47.36-8.64Q47.85-7.18 48.9-6.25 49.95-5.32 51.29-4.81 52.63-4.3 54.12-4.1 55.61-3.91 56.93-3.91L56.93-3.91Q57.76-3.91 59.15-4.03 60.54-4.15 62.01-4.42 63.47-4.69 64.77-5.08 66.06-5.47 66.7-6.05L66.7-6.05 69.09-1.86Q65.87-0.63 62.74 0.05 59.62 0.73 56.15 0.73ZM56.15-20.26L56.15-20.26Q54.69-20.26 53.24-19.68 51.8-19.09 50.63-18.14 49.46-17.19 48.58-15.89 47.7-14.6 47.31-13.23L47.31-13.23 61.28-13.23Q61.42-14.7 61.3-15.99 61.18-17.29 60.64-18.24 60.1-19.19 59.03-19.73 57.96-20.26 56.15-20.26ZM135.78 0L127.24 0Q127.73-0.88 128.04-2.49 128.36-4.1 128.53-5.86 128.7-7.62 128.78-9.3 128.85-10.99 128.85-12.01L128.85-12.01Q128.85-13.28 128.63-14.53 128.41-15.77 127.87-16.72 127.34-17.68 126.36-18.26 125.38-18.85 123.87-18.85L123.87-18.85Q122.01-18.85 120.35-17.87 118.69-16.89 117.42-15.63L117.42-15.63Q117.57-14.5 117.57-13.48L117.57-13.48Q117.57-11.28 117.52-9.13 117.47-6.98 117.47-4.79L117.47-4.79Q117.47-3.56 117.5-2.37 117.52-1.17 117.72 0L117.72 0 109.17 0Q109.66-0.88 109.98-2.49 110.3-4.1 110.49-5.86 110.69-7.62 110.73-9.3 110.78-10.99 110.78-12.01L110.78-12.01Q110.78-13.28 110.56-14.53 110.34-15.77 109.81-16.72 109.27-17.68 108.29-18.26 107.32-18.85 105.8-18.85L105.8-18.85Q103.85-18.85 102.12-17.77 100.38-16.7 99.11-15.28L99.11-15.28Q99.02-13.04 98.97-10.79 98.92-8.54 98.92-6.25L98.92-6.25Q98.92-5.91 98.92-4.91 98.92-3.91 98.97-2.78 99.02-1.66 99.11-0.71 99.21 0.24 99.46 0.44L99.46 0.44 90.81 0.44Q91.01 0.2 91.2-0.95 91.4-2.1 91.55-3.69 91.69-5.27 91.79-7.1 91.89-8.94 91.96-10.6 92.03-12.26 92.06-13.53 92.08-14.79 92.08-15.28L92.08-15.28Q92.08-15.67 92.06-16.92 92.03-18.16 91.94-19.51 91.84-20.85 91.62-21.97 91.4-23.1 90.96-23.24L90.96-23.24 99.5-23.19Q99.41-22.66 99.41-22.05 99.41-21.44 99.36-20.85L99.36-20.85Q101.16-22.17 103.39-23.02 105.61-23.88 107.9-23.88L107.9-23.88Q110.34-23.88 112.52-22.88 114.69-21.88 116.01-19.73L116.01-19.73Q117.91-21.53 120.62-22.71 123.33-23.88 125.97-23.88L125.97-23.88Q128.31-23.88 130.12-23.12 131.93-22.36 133.15-20.97 134.37-19.58 135-17.68 135.64-15.77 135.64-13.48L135.64-13.48Q135.64-11.28 135.56-9.13 135.49-6.98 135.49-4.79L135.49-4.79Q135.49-3.56 135.54-2.37 135.59-1.17 135.78 0L135.78 0ZM168.2 0.59L159.17 0.59Q160 0.34 160.2-0.51 160.39-1.37 160.44-2.05L160.44-2.05Q158.24-1.37 156-1.03 153.75-0.68 151.5-0.68L151.5-0.68Q150.04-0.68 148.01-0.93 145.99-1.17 144.16-1.86 142.32-2.54 141.03-3.76 139.74-4.98 139.74-6.98L139.74-6.98Q139.74-8.69 140.98-9.91 142.23-11.13 144.18-11.94 146.13-12.74 148.57-13.18 151.02-13.62 153.36-13.87 155.7-14.11 157.75-14.16 159.8-14.21 160.98-14.26L160.98-14.26Q160.98-14.94 161-15.58 161.03-16.21 161.03-16.89L161.03-16.89Q161.03-18.12 160.59-19.02 160.15-19.92 159.39-20.51 158.63-21.09 157.61-21.36 156.58-21.63 155.46-21.63L155.46-21.63Q154.38-21.63 153.14-21.34 151.89-21.04 150.77-20.46 149.65-19.87 148.82-18.97 147.99-18.07 147.79-16.89L147.79-16.89 141.64-17.72Q142.52-19.97 144.08-21.53 145.64-23.1 147.62-24.07 149.6-25.05 151.85-25.51 154.09-25.98 156.34-25.98L156.34-25.98Q158.49-25.98 160.51-25.44 162.54-24.9 164.13-23.8 165.71-22.71 166.66-21 167.62-19.29 167.62-16.94L167.62-16.94Q167.62-14.45 167.54-11.99 167.47-9.52 167.47-7.03L167.47-7.03Q167.47-6.59 167.47-5.44 167.47-4.3 167.54-3.05 167.62-1.81 167.76-0.76 167.91 0.29 168.2 0.59L168.2 0.59ZM146.38-6.98L146.38-6.98Q146.38-6.25 147.16-5.86 147.94-5.47 148.99-5.25 150.04-5.03 151.06-4.98 152.09-4.93 152.53-4.93L152.53-4.93Q154.58-4.93 156.68-5.22 158.78-5.52 160.73-6.15L160.73-6.15Q160.78-7.03 160.81-7.91 160.83-8.79 160.83-9.62L160.83-9.62 159.56-9.67Q159.12-9.67 157.97-9.64 156.83-9.62 155.36-9.55 153.9-9.47 152.31-9.3 150.72-9.13 149.4-8.84 148.09-8.54 147.23-8.08 146.38-7.62 146.38-6.98ZM201.45-15.04L201.45-15.04Q201.45-11.67 201.13-8.35 200.82-5.03 200.82-1.66L200.82-1.66Q200.82-0.54 200.96 0.54L200.96 0.54 192.42 0.54Q192.91-0.24 193.15-2.08 193.4-3.91 193.52-5.98 193.64-8.06 193.66-9.99 193.69-11.91 193.69-12.94L193.69-12.94Q193.69-15.92 192.22-17.6 190.76-19.29 187.68-19.29L187.68-19.29Q186.66-19.29 185.71-18.92 184.75-18.55 183.9-17.97 183.04-17.38 182.29-16.65 181.53-15.92 180.94-15.19L180.94-15.19Q180.8-10.94 180.8-6.69L180.8-6.69Q180.8-6.35 180.8-5.35 180.8-4.35 180.85-3.22 180.9-2.1 180.99-1.15 181.09-0.2 181.34 0L181.34 0 172.69 0Q172.89-0.29 173.08-1.44 173.28-2.59 173.43-4.17 173.57-5.76 173.67-7.57 173.77-9.38 173.84-11.04 173.91-12.7 173.94-13.96 173.96-15.23 173.96-15.72L173.96-15.72Q173.96-16.11 173.94-17.36 173.91-18.6 173.82-19.95 173.72-21.29 173.5-22.41 173.28-23.54 172.84-23.68L172.84-23.68 181.38-23.63 181.24-21.29Q183.04-22.61 185.27-23.46 187.49-24.32 189.78-24.32L189.78-24.32Q192.03-24.32 194.15-23.85 196.28-23.39 197.89-22.29 199.5-21.19 200.48-19.43 201.45-17.68 201.45-15.04ZM233.38 0.59L224.35 0.59Q225.18 0.34 225.38-0.51 225.57-1.37 225.62-2.05L225.62-2.05Q223.42-1.37 221.18-1.03 218.93-0.68 216.68-0.68L216.68-0.68Q215.22-0.68 213.19-0.93 211.17-1.17 209.34-1.86 207.5-2.54 206.21-3.76 204.92-4.98 204.92-6.98L204.92-6.98Q204.92-8.69 206.16-9.91 207.41-11.13 209.36-11.94 211.31-12.74 213.75-13.18 216.2-13.62 218.54-13.87 220.88-14.11 222.93-14.16 224.99-14.21 226.16-14.26L226.16-14.26Q226.16-14.94 226.18-15.58 226.21-16.21 226.21-16.89L226.21-16.89Q226.21-18.12 225.77-19.02 225.33-19.92 224.57-20.51 223.81-21.09 222.79-21.36 221.76-21.63 220.64-21.63L220.64-21.63Q219.57-21.63 218.32-21.34 217.07-21.04 215.95-20.46 214.83-19.87 214-18.97 213.17-18.07 212.97-16.89L212.97-16.89 206.82-17.72Q207.7-19.97 209.26-21.53 210.82-23.1 212.8-24.07 214.78-25.05 217.03-25.51 219.27-25.98 221.52-25.98L221.52-25.98Q223.67-25.98 225.69-25.44 227.72-24.9 229.31-23.8 230.89-22.71 231.85-21 232.8-19.29 232.8-16.94L232.8-16.94Q232.8-14.45 232.72-11.99 232.65-9.52 232.65-7.03L232.65-7.03Q232.65-6.59 232.65-5.44 232.65-4.3 232.72-3.05 232.8-1.81 232.94-0.76 233.09 0.29 233.38 0.59L233.38 0.59ZM211.56-6.98L211.56-6.98Q211.56-6.25 212.34-5.86 213.12-5.47 214.17-5.25 215.22-5.03 216.24-4.98 217.27-4.93 217.71-4.93L217.71-4.93Q219.76-4.93 221.86-5.22 223.96-5.52 225.91-6.15L225.91-6.15Q225.96-7.03 225.99-7.91 226.01-8.79 226.01-9.62L226.01-9.62 224.74-9.67Q224.3-9.67 223.15-9.64 222.01-9.62 220.54-9.55 219.08-9.47 217.49-9.3 215.9-9.13 214.58-8.84 213.27-8.54 212.41-8.08 211.56-7.62 211.56-6.98ZM258.67-24.02L267.02-24.02Q266.78-23.73 266.61-22 266.44-20.26 266.32-17.75 266.19-15.23 266.12-12.33 266.05-9.42 266-6.76 265.95-4.1 265.92-2.08 265.9-0.05 265.9 0.63L265.9 0.63Q265.9 5.03 261.99 7.57 258.09 10.11 250.91 10.35L250.91 10.35Q248.86 10.45 246.81 10.42 244.76 10.4 242.71 10.45L242.71 10.45 242.71 4.98Q243.44 5.32 244.51 5.52 245.59 5.71 246.76 5.83 247.93 5.96 249.03 5.98 250.13 6.01 250.91 6.01L250.91 6.01Q253.6 6.01 255.18 5.47 256.77 4.93 257.6 3.78 258.43 2.64 258.72 0.81 259.02-1.03 259.11-3.61L259.11-3.61Q257.11-2.05 254.62-1.22 252.13-0.39 249.64-0.39L249.64-0.39Q247.15-0.39 244.73-1.12 242.32-1.86 240.41-3.3 238.51-4.74 237.31-6.86 236.12-8.98 236.12-11.72L236.12-11.72Q236.12-14.4 237.6-16.65 239.09-18.9 241.36-20.46 243.63-22.02 246.37-22.9 249.1-23.78 251.55-23.78L251.55-23.78Q253.55-23.78 255.45-23.29 257.36-22.8 259.02-21.68L259.02-21.68Q258.97-22.07 258.94-22.85 258.92-23.63 258.67-24.02L258.67-24.02ZM250.81-4.79L250.81-4.79Q252.03-4.79 253.4-5.2 254.77-5.62 255.94-6.37 257.11-7.13 257.92-8.23 258.72-9.33 258.87-10.69L258.87-10.69Q258.97-11.28 258.97-11.94 258.97-12.6 258.97-13.23L258.97-13.23Q258.97-14.65 258.28-15.72 257.6-16.8 256.53-17.53 255.45-18.26 254.13-18.63 252.81-18.99 251.59-18.99L251.59-18.99Q249.93-18.99 248.3-18.53 246.66-18.07 245.34-17.14 244.03-16.21 243.2-14.79 242.37-13.38 242.37-11.52L242.37-11.52Q242.37-9.77 243.1-8.5 243.83-7.23 245.05-6.4 246.27-5.57 247.76-5.18 249.25-4.79 250.81-4.79ZM285.33 0.73L285.33 0.73Q282.94 0.73 280.25 0.1 277.57-0.54 275.3-1.88 273.03-3.22 271.54-5.27 270.05-7.32 270.05-10.16L270.05-10.16Q270.05-13.62 271.42-16.36 272.78-19.09 275.08-20.97 277.37-22.85 280.4-23.85 283.43-24.85 286.75-24.85L286.75-24.85Q289.38-24.85 291.44-24 293.49-23.14 294.85-21.61 296.22-20.07 296.93-17.97 297.64-15.87 297.64-13.33L297.64-13.33Q297.64-10.89 296.9-8.64L296.9-8.64 276.54-8.64Q277.03-7.18 278.08-6.25 279.13-5.32 280.47-4.81 281.82-4.3 283.31-4.1 284.79-3.91 286.11-3.91L286.11-3.91Q286.94-3.91 288.33-4.03 289.73-4.15 291.19-4.42 292.66-4.69 293.95-5.08 295.24-5.47 295.88-6.05L295.88-6.05 298.27-1.86Q295.05-0.63 291.92 0.05 288.8 0.73 285.33 0.73ZM285.33-20.26L285.33-20.26Q283.87-20.26 282.43-19.68 280.99-19.09 279.81-18.14 278.64-17.19 277.76-15.89 276.88-14.6 276.49-13.23L276.49-13.23 290.46-13.23Q290.61-14.7 290.48-15.99 290.36-17.29 289.82-18.24 289.29-19.19 288.21-19.73 287.14-20.26 285.33-20.26ZM347.53-24.51Q347.34-24.22 347.24-23.14 347.14-22.07 347.09-20.83 347.05-19.58 347.05-18.43 347.05-17.29 347.05-16.85L347.05-16.85Q347.05-12.84 347.09-8.86 347.14-4.88 347.14-0.93L347.14-0.93Q347.14 2.1 345.8 4.37 344.46 6.64 342.31 8.13 340.16 9.62 337.48 10.35 334.79 11.08 332.1 11.08L332.1 11.08Q329.13 11.08 326.17 11.04 323.22 10.99 320.29 10.94L320.29 10.94 320.78 5.27Q321.51 5.57 322.85 5.83 324.19 6.1 325.66 6.27 327.12 6.45 328.49 6.54 329.86 6.64 330.74 6.64L330.74 6.64Q333.03 6.64 334.84 6.25 336.64 5.86 337.91 4.91 339.18 3.96 339.87 2.29 340.55 0.63 340.55-1.86L340.55-1.86Q340.55-2.29 340.53-2.76 340.5-3.22 340.45-3.66L340.45-3.66Q338.5-2.25 336.16-1.56 333.81-0.88 331.42-0.88L331.42-0.88Q327.9-0.88 325.59-1.98 323.27-3.08 321.9-5 320.53-6.93 319.97-9.59 319.41-12.26 319.41-15.38L319.41-15.38Q319.41-16.89 319.51-18.41 319.6-19.92 319.6-21.44L319.6-21.44Q319.6-22.12 319.53-22.92 319.46-23.73 319.02-24.27L319.02-24.27 327.9-24.22Q327.51-23.58 327.2-22.36 326.88-21.14 326.68-19.78 326.49-18.41 326.39-17.11 326.29-15.82 326.29-15.04L326.29-15.04Q326.29-13.09 326.56-11.43 326.83-9.77 327.61-8.52 328.39-7.28 329.74-6.57 331.08-5.86 333.23-5.86L333.23-5.86Q334.11-5.86 335.23-6.01 336.35-6.15 337.38-6.57 338.4-6.98 339.18-7.67 339.97-8.35 340.11-9.42L340.11-9.42Q340.26-10.3 340.26-11.21 340.26-12.11 340.26-12.94L340.26-12.94Q340.26-13.67 340.18-15.41 340.11-17.14 339.97-18.97 339.82-20.8 339.55-22.39 339.28-23.97 338.89-24.41L338.89-24.41 347.53-24.51ZM368.04-23.54L368.04-23.54Q370.72-23.54 373.7-22.78 376.68-22.02 379.12-20.48 381.56-18.95 383.18-16.6 384.79-14.26 384.79-11.08L384.79-11.08Q384.79-8.98 384.01-7.3 383.22-5.62 381.93-4.32 380.64-3.03 378.93-2.08 377.22-1.12 375.34-0.51 373.46 0.1 371.51 0.39 369.55 0.68 367.84 0.68L367.84 0.68Q365.06 0.68 362.13 0.05 359.2-0.59 356.78-2 354.37-3.42 352.83-5.69 351.29-7.96 351.29-11.28L351.29-11.28Q351.29-14.55 352.88-16.87 354.46-19.19 356.91-20.68 359.35-22.17 362.3-22.85 365.26-23.54 368.04-23.54ZM358.62-11.33L358.62-11.33Q358.62-9.42 359.47-8.11 360.32-6.79 361.67-5.96 363.01-5.13 364.67-4.76 366.33-4.39 367.94-4.39L367.94-4.39Q369.45-4.39 371.12-4.79 372.78-5.18 374.19-6.01 375.61-6.84 376.54-8.13 377.46-9.42 377.46-11.23L377.46-11.23Q377.46-13.04 376.58-14.38 375.7-15.72 374.34-16.63 372.97-17.53 371.29-17.97 369.6-18.41 368.04-18.41L368.04-18.41Q366.43-18.41 364.77-17.99 363.11-17.58 361.74-16.72 360.37-15.87 359.49-14.53 358.62-13.18 358.62-11.33ZM417.79-23.78Q417.6-23.44 417.43-22.31 417.26-21.19 417.11-19.65 416.96-18.12 416.86-16.31 416.77-14.5 416.69-12.87 416.62-11.23 416.6-9.94 416.57-8.64 416.57-8.06L416.57-8.06Q416.57-7.57 416.57-6.32 416.57-5.08 416.69-3.76 416.82-2.44 417.04-1.37 417.26-0.29 417.69-0.1L417.69-0.1 409.1-0.15 409.3-2.49Q407.44-1.17 405.24-0.32 403.05 0.54 400.75 0.54L400.75 0.54Q398.46 0.54 396.33-0.02 394.21-0.59 392.6-1.76 390.99-2.93 390.01-4.76 389.03-6.59 389.03-9.18L389.03-9.18Q389.03-12.45 389.35-15.67 389.67-18.9 389.67-22.17L389.67-22.17Q389.67-22.71 389.64-23.24 389.62-23.78 389.52-24.32L389.52-24.32 397.77-24.32Q397.28-23.49 397.04-21.68 396.8-19.87 396.67-17.82 396.55-15.77 396.53-13.84 396.5-11.91 396.5-10.84L396.5-10.84Q396.5-8.98 396.8-7.76 397.09-6.54 397.8-5.81 398.51-5.08 399.73-4.79 400.95-4.49 402.8-4.49L402.8-4.49Q403.83-4.49 404.78-4.86 405.73-5.22 406.61-5.81 407.49-6.4 408.22-7.13 408.95-7.86 409.54-8.59L409.54-8.59Q409.64-10.74 409.69-12.84 409.74-14.94 409.74-17.09L409.74-17.09Q409.74-17.53 409.74-18.53 409.74-19.53 409.69-20.61 409.64-21.68 409.52-22.58 409.39-23.49 409.2-23.78L409.2-23.78 417.79-23.78ZM459.05-13.82Q459.68-14.5 460.32-15.43 460.95-16.36 460.95-17.29L460.95-17.29Q460.95-18.16 460.32-18.73 459.68-19.29 458.8-19.58 457.92-19.87 456.97-20 456.02-20.12 455.38-20.12L455.38-20.12Q453.38-20.12 451.63-19.41 449.87-18.7 448.55-17.46 447.23-16.21 446.47-14.5 445.72-12.79 445.72-10.74L445.72-10.74Q445.72-8.84 446.52-7.71 447.33-6.59 448.57-6.03 449.82-5.47 451.38-5.32 452.94-5.18 454.51-5.18L454.51-5.18Q456.9-5.18 459.49-5.57 462.07-5.96 464.37-6.64L464.37-6.64 465.69-2.29Q463.34-1.42 460.46-1 457.58-0.59 455.04-0.59L455.04-0.59Q453.53-0.59 451.75-0.76 449.97-0.93 448.16-1.34 446.35-1.76 444.67-2.44 442.98-3.13 441.66-4.2 440.35-5.27 439.56-6.76 438.78-8.25 438.78-10.21L438.78-10.21Q438.78-13.77 440.52-16.48 442.25-19.19 444.96-21.02 447.67-22.85 450.97-23.78 454.26-24.71 457.44-24.71L457.44-24.71Q459.19-24.71 460.95-24.44 462.71-24.17 464.13-23.44 465.54-22.71 466.42-21.39 467.3-20.07 467.3-17.97L467.3-17.97Q467.3-16.89 467.1-15.87 466.91-14.84 466.62-13.82L466.62-13.82 459.05-13.82ZM485.36 0.73L485.36 0.73Q482.97 0.73 480.28 0.1 477.6-0.54 475.33-1.88 473.06-3.22 471.57-5.27 470.08-7.32 470.08-10.16L470.08-10.16Q470.08-13.62 471.45-16.36 472.81-19.09 475.11-20.97 477.4-22.85 480.43-23.85 483.46-24.85 486.78-24.85L486.78-24.85Q489.42-24.85 491.47-24 493.52-23.14 494.88-21.61 496.25-20.07 496.96-17.97 497.67-15.87 497.67-13.33L497.67-13.33Q497.67-10.89 496.94-8.64L496.94-8.64 476.57-8.64Q477.06-7.18 478.11-6.25 479.16-5.32 480.5-4.81 481.85-4.3 483.34-4.1 484.83-3.91 486.14-3.91L486.14-3.91Q486.97-3.91 488.37-4.03 489.76-4.15 491.22-4.42 492.69-4.69 493.98-5.08 495.28-5.47 495.91-6.05L495.91-6.05 498.3-1.86Q495.08-0.63 491.95 0.05 488.83 0.73 485.36 0.73ZM485.36-20.26L485.36-20.26Q483.9-20.26 482.46-19.68 481.02-19.09 479.85-18.14 478.67-17.19 477.79-15.89 476.92-14.6 476.53-13.23L476.53-13.23 490.49-13.23Q490.64-14.7 490.51-15.99 490.39-17.29 489.86-18.24 489.32-19.19 488.24-19.73 487.17-20.26 485.36-20.26ZM502.79 0.44Q503.04 0.05 503.28-1.93 503.52-3.91 503.7-6.67 503.87-9.42 504.01-12.62 504.16-15.82 504.28-18.7 504.4-21.58 504.45-23.78 504.5-25.98 504.5-26.76L504.5-26.76Q504.5-27.2 504.5-28.54 504.5-29.88 504.43-31.4 504.35-32.91 504.16-34.16 503.96-35.4 503.57-35.64L503.57-35.64 512.9-35.55Q512.66-35.5 512.53-34.96 512.41-34.42 512.36-34.23L512.36-34.23Q511.83-31.79 511.68-29.27 511.53-26.76 511.39-24.27L511.39-24.27Q511.14-20.12 511.02-16.06 510.9-12.01 510.9-7.86L510.9-7.86Q510.9-7.47 510.9-6.23 510.9-4.98 510.95-3.61 511-2.25 511.09-1.05 511.19 0.15 511.43 0.44L511.43 0.44 502.79 0.44ZM531.21 0.73L531.21 0.73Q528.81 0.73 526.13 0.1 523.44-0.54 521.17-1.88 518.9-3.22 517.41-5.27 515.92-7.32 515.92-10.16L515.92-10.16Q515.92-13.62 517.29-16.36 518.66-19.09 520.95-20.97 523.25-22.85 526.28-23.85 529.3-24.85 532.62-24.85L532.62-24.85Q535.26-24.85 537.31-24 539.36-23.14 540.73-21.61 542.1-20.07 542.8-17.97 543.51-15.87 543.51-13.33L543.51-13.33Q543.51-10.89 542.78-8.64L542.78-8.64 522.42-8.64Q522.91-7.18 523.96-6.25 525.01-5.32 526.35-4.81 527.69-4.3 529.18-4.1 530.67-3.91 531.99-3.91L531.99-3.91Q532.82-3.91 534.21-4.03 535.6-4.15 537.07-4.42 538.53-4.69 539.83-5.08 541.12-5.47 541.75-6.05L541.75-6.05 544.15-1.86Q540.92-0.63 537.8 0.05 534.67 0.73 531.21 0.73ZM531.21-20.26L531.21-20.26Q529.74-20.26 528.3-19.68 526.86-19.09 525.69-18.14 524.52-17.19 523.64-15.89 522.76-14.6 522.37-13.23L522.37-13.23 536.33-13.23Q536.48-14.7 536.36-15.99 536.24-17.29 535.7-18.24 535.16-19.19 534.09-19.73 533.01-20.26 531.21-20.26ZM565.58-24.56L565.58-24.56Q568.22-24.56 570.78-23.85 573.34-23.14 575.39-21.73 577.45-20.31 578.71-18.12 579.98-15.92 579.98-12.99L579.98-12.99Q579.98-10.99 579.15-9.25 578.32-7.52 576.96-6.1 575.59-4.69 573.91-3.61 572.22-2.54 570.56-1.9L570.56-1.9Q567.09-0.59 563.43-0.59L563.43-0.59Q561.38-0.59 559.4-1.03 557.43-1.46 555.62-2.49L555.62-2.49Q555.67-1.95 555.72-1.25 555.77-0.54 556.01 0L556.01 0 547.42 0Q547.66-0.39 547.88-2.29 548.1-4.2 548.29-6.88 548.49-9.57 548.64-12.7 548.78-15.82 548.91-18.7 549.03-21.58 549.08-23.88 549.12-26.17 549.12-27.2L549.12-27.2Q549.12-27.73 549.12-29.08 549.12-30.42 549.03-31.88 548.93-33.35 548.73-34.57 548.54-35.79 548.2-36.04L548.2-36.04 557.47-35.99Q557.13-35.84 556.89-34.86 556.64-33.89 556.45-32.45 556.25-31.01 556.13-29.3 556.01-27.59 555.91-26.05 555.81-24.51 555.77-23.29 555.72-22.07 555.72-21.58L555.72-21.58Q557.87-23.05 560.4-23.8 562.94-24.56 565.58-24.56ZM563.38-5.47L563.38-5.47Q565.09-5.47 566.78-5.96 568.46-6.45 569.83-7.42 571.2-8.4 572.03-9.84 572.86-11.28 572.86-13.18L572.86-13.18Q572.86-14.94 572.1-16.24 571.34-17.53 570.12-18.38 568.9-19.24 567.36-19.63 565.82-20.02 564.26-20.02L564.26-20.02Q562.85-20.02 561.33-19.58 559.82-19.14 558.52-18.31 557.23-17.48 556.4-16.26 555.57-15.04 555.52-13.43L555.52-13.43 555.52-11.52Q555.52-9.96 556.23-8.81 556.94-7.67 558.08-6.93 559.23-6.2 560.62-5.83 562.02-5.47 563.38-5.47ZM590.43-18.55L590.43-18.55Q591.6-19.53 593.14-20.41 594.68-21.29 596.36-21.95 598.05-22.61 599.78-23 601.51-23.39 603.03-23.39L603.03-23.39 603.03-19.19Q601.47-19.19 599.56-18.51 597.66-17.82 595.83-16.75 594-15.67 592.53-14.31 591.07-12.94 590.38-11.52L590.38-11.52Q590.38-11.18 590.41-10.25 590.43-9.33 590.46-8.11 590.48-6.88 590.53-5.54 590.58-4.2 590.68-3.03 590.77-1.86 590.87-1.03 590.97-0.2 591.11 0L591.11 0 583.2 0Q583.4-0.1 583.55-1.05 583.69-2 583.77-3.37 583.84-4.74 583.91-6.32 583.99-7.91 584.01-9.38 584.03-10.84 584.03-11.91 584.03-12.99 584.03-13.33L584.03-13.33Q584.03-13.77 584.03-15.19 584.03-16.6 583.99-18.16 583.94-19.73 583.84-21.07 583.74-22.41 583.55-22.71L583.55-22.71 590.77-22.71Q590.68-22.41 590.63-21.85 590.58-21.29 590.53-20.65 590.48-20.02 590.46-19.43 590.43-18.85 590.43-18.55ZM631.74 0.59L622.7 0.59Q623.53 0.34 623.73-0.51 623.92-1.37 623.97-2.05L623.97-2.05Q621.78-1.37 619.53-1.03 617.28-0.68 615.04-0.68L615.04-0.68Q613.57-0.68 611.55-0.93 609.52-1.17 607.69-1.86 605.86-2.54 604.56-3.76 603.27-4.98 603.27-6.98L603.27-6.98Q603.27-8.69 604.52-9.91 605.76-11.13 607.71-11.94 609.67-12.74 612.11-13.18 614.55-13.62 616.89-13.87 619.24-14.11 621.29-14.16 623.34-14.21 624.51-14.26L624.51-14.26Q624.51-14.94 624.53-15.58 624.56-16.21 624.56-16.89L624.56-16.89Q624.56-18.12 624.12-19.02 623.68-19.92 622.92-20.51 622.17-21.09 621.14-21.36 620.12-21.63 618.99-21.63L618.99-21.63Q617.92-21.63 616.67-21.34 615.43-21.04 614.31-20.46 613.18-19.87 612.35-18.97 611.52-18.07 611.33-16.89L611.33-16.89 605.17-17.72Q606.05-19.97 607.62-21.53 609.18-23.1 611.16-24.07 613.13-25.05 615.38-25.51 617.63-25.98 619.87-25.98L619.87-25.98Q622.02-25.98 624.05-25.44 626.07-24.9 627.66-23.8 629.25-22.71 630.2-21 631.15-19.29 631.15-16.94L631.15-16.94Q631.15-14.45 631.08-11.99 631-9.52 631-7.03L631-7.03Q631-6.59 631-5.44 631-4.3 631.08-3.05 631.15-1.81 631.3-0.76 631.44 0.29 631.74 0.59L631.74 0.59ZM609.91-6.98L609.91-6.98Q609.91-6.25 610.69-5.86 611.47-5.47 612.52-5.25 613.57-5.03 614.6-4.98 615.62-4.93 616.06-4.93L616.06-4.93Q618.11-4.93 620.21-5.22 622.31-5.52 624.27-6.15L624.27-6.15Q624.32-7.03 624.34-7.91 624.36-8.79 624.36-9.62L624.36-9.62 623.09-9.67Q622.66-9.67 621.51-9.64 620.36-9.62 618.9-9.55 617.43-9.47 615.84-9.3 614.26-9.13 612.94-8.84 611.62-8.54 610.77-8.08 609.91-7.62 609.91-6.98ZM647.46-17.63Q647.36-15.14 647.26-12.62 647.16-10.11 647.16-7.62L647.16-7.62Q647.16-6.79 647.51-6.2 647.85-5.62 648.41-5.25 648.97-4.88 649.68-4.74 650.39-4.59 651.12-4.59L651.12-4.59Q652.05-4.59 652.95-4.74 653.85-4.88 654.73-5.13L654.73-5.13 653.95 0.1Q651.12 0.1 648.63-0.07 646.14-0.24 644.28-1.12 642.43-2 641.35-3.93 640.28-5.86 640.28-9.38L640.28-9.38Q640.28-11.43 640.4-13.5 640.52-15.58 640.72-17.63L640.72-17.63 633.49-17.58 633.83-22.36Q635.59-22.22 637.4-22.19 639.21-22.17 641.01-22.17L641.01-22.17Q641.11-23.58 641.16-24.93 641.21-26.27 641.21-27.69L641.21-27.69Q641.21-27.98 641.21-28.86 641.21-29.74 641.11-30.69 641.01-31.64 640.82-32.42 640.62-33.2 640.28-33.35L640.28-33.35 649.26-33.2Q649.07-33.2 648.97-32.91 648.87-32.62 648.78-32.47L648.78-32.47Q648.48-31.54 648.31-30.22 648.14-28.91 648.02-27.47 647.9-26.03 647.82-24.68 647.75-23.34 647.7-22.31L647.7-22.31Q649.36-22.41 651.07-22.49 652.78-22.56 654.44-22.95L654.44-22.95 654.44-17.68 647.46-17.63ZM673.04 0.73L673.04 0.73Q670.65 0.73 667.96 0.1 665.28-0.54 663.01-1.88 660.74-3.22 659.25-5.27 657.76-7.32 657.76-10.16L657.76-10.16Q657.76-13.62 659.12-16.36 660.49-19.09 662.79-20.97 665.08-22.85 668.11-23.85 671.14-24.85 674.46-24.85L674.46-24.85Q677.09-24.85 679.14-24 681.19-23.14 682.56-21.61 683.93-20.07 684.64-17.97 685.35-15.87 685.35-13.33L685.35-13.33Q685.35-10.89 684.61-8.64L684.61-8.64 664.25-8.64Q664.74-7.18 665.79-6.25 666.84-5.32 668.18-4.81 669.53-4.3 671.01-4.1 672.5-3.91 673.82-3.91L673.82-3.91Q674.65-3.91 676.04-4.03 677.44-4.15 678.9-4.42 680.36-4.69 681.66-5.08 682.95-5.47 683.59-6.05L683.59-6.05 685.98-1.86Q682.76-0.63 679.63 0.05 676.51 0.73 673.04 0.73ZM673.04-20.26L673.04-20.26Q671.58-20.26 670.14-19.68 668.69-19.09 667.52-18.14 666.35-17.19 665.47-15.89 664.59-14.6 664.2-13.23L664.2-13.23 678.17-13.23Q678.31-14.7 678.19-15.99 678.07-17.29 677.53-18.24 677-19.19 675.92-19.73 674.85-20.26 673.04-20.26Z" opacity="1" transform="matrix(1,0,0,1,0,0)" fill="#374151" class="slogan-text-1" data-fill-palette-color="secondary" id="text-1"></path></svg></g></svg></g></svg></g></svg></g><g transform="matrix(1,0,0,1,0,7.672675463218553)"><svg viewBox="0 0 244.43135999999998 215.34572121700197" height="215.34572121700197" width="244.43135999999998"><g><svg xmlns="http://www.w3.org/2000/svg" xmlns:xlink="http://www.w3.org/1999/xlink" version="1.1" x="0" y="0" viewBox="6.300000190734863 11.5 87.39999389648438 77" style="enable-background:new 0 0 100 100;" xml:space="preserve" height="215.34572121700197" width="244.43135999999998" class="icon-icon-0" data-fill-palette-color="accent" id="icon-0"><path d="M72.3 12.3L72.3 12.3 72.3 12.3l-0.4-0.8H28.2L6.3 50l21.8 38.5h43.7L93.7 50 72.3 12.3zM33.3 25.3L9.9 47.7l18.6-32.8L33.3 25.3zM70.7 14.8l6.4 35.7L36.9 25.8 70.7 14.8zM35.5 27.3l41 25.2-41 23.3V27.3zM77 54.5l-7.2 30.8-32.6-8.1L77 54.5zM33.5 75L9.9 50.5l23.6-22.7V75zM33.2 77.6l-4.6 7.7L11.5 55.1 33.2 77.6zM35 78.6l31.4 7.9H30.2L35 78.6zM79.3 53.3l11.6-2.5L72.1 84 79.3 53.3zM90.7 48.9l-11.4 2.5-5.9-33.1L90.7 48.9zM35 24.3l-5-10.8h38.2L35 24.3z" fill="#374151" data-fill-palette-color="accent"></path></svg></g></svg></g></svg></g><defs></defs></svg><rect width="395.52" height="132.2097405755986" fill="none" stroke="none" visibility="hidden"></rect></g></svg></g></svg>